<svg width="20" height="21" viewBox="0 0 20 21" fill="none" xmlns="http://www.w3.org/2000/svg">
<path d="M15 6.5C15 7.05228 14.5523 7.5 14 7.5C13.4477 7.5 13 7.05228 13 6.5C13 5.94772 13.4477 5.5 14 5.5C14.5523 5.5 15 5.94772 15 6.5ZM9.7037 3.08399C10.0818 2.70681 10.5951 2.49654 11.1292 2.50004L16.0196 2.5321C17.1179 2.5393 18.0049 3.43081 18.0065 4.52911L18.0138 9.47917C18.0146 10.0106 17.8038 10.5205 17.428 10.8963L17.0675 11.2568C16.8634 10.9918 16.6305 10.7502 16.3734 10.5367L16.7209 10.1892C16.9088 10.0013 17.0142 9.74637 17.0138 9.48065L17.0065 4.53058C17.0057 3.98143 16.5622 3.53568 16.013 3.53208L11.1227 3.50002C10.8556 3.49827 10.599 3.6034 10.4099 3.79199L3.72836 10.4565C3.33699 10.8469 3.33659 11.4808 3.72746 11.8716L8.67586 16.82C9.04849 17.1927 9.64203 17.2097 10.0349 16.8713C10.2487 17.129 10.4907 17.3625 10.7562 17.567C9.97244 18.308 8.73628 18.2947 7.96875 17.5271L3.02036 12.5788C2.2386 11.797 2.23941 10.5293 3.02216 9.74852L9.7037 3.08399ZM16.3032 16.0961C16.7408 15.5118 17 14.7862 17 14C17 12.067 15.433 10.5 13.5 10.5C11.567 10.5 10 12.067 10 14C10 15.933 11.567 17.5 13.5 17.5C14.2862 17.5 15.0118 17.2408 15.5961 16.8032L18.1464 19.3536C18.3417 19.5489 18.6583 19.5489 18.8535 19.3536C19.0488 19.1584 19.0488 18.8418 18.8536 18.6465L16.3032 16.0961ZM16 14C16 15.3807 14.8807 16.5 13.5 16.5C12.1193 16.5 11 15.3807 11 14C11 12.6193 12.1193 11.5 13.5 11.5C14.8807 11.5 16 12.6193 16 14Z" fill="#212121"/>
</svg>
