<svg width="52" height="52" viewBox="0 0 52 52" fill="none" xmlns="http://www.w3.org/2000/svg">
<rect width="52" height="52" rx="10" fill="white"/>
<path d="M25.8834 17.0067L26 17C26.5128 17 26.9355 17.386 26.9933 17.8834L27 18V25H34C34.5128 25 34.9355 25.386 34.9933 25.8834L35 26C35 26.5128 34.614 26.9355 34.1166 26.9933L34 27H27V34C27 34.5128 26.614 34.9355 26.1166 34.9933L26 35C25.4872 35 25.0645 34.614 25.0067 34.1166L25 34V27H18C17.4872 27 17.0645 26.614 17.0067 26.1166L17 26C17 25.4872 17.386 25.0645 17.8834 25.0067L18 25H25V18C25 17.4872 25.386 17.0645 25.8834 17.0067L26 17L25.8834 17.0067Z" fill="#3B353F"/>
</svg>
