<svg width="18" height="18" viewBox="0 0 18 18" fill="none" xmlns="http://www.w3.org/2000/svg">
<path d="M9.42559 15.6884L14.7778 10.2855C16.2216 8.81905 16.217 6.4507 14.7634 4.98241C13.3381 3.54278 11.0538 3.50556 9.59814 4.87816C9.56676 4.90775 9.53576 4.938 9.50516 4.96891L8.99398 5.48622L8.4758 4.96282C8.44739 4.93413 8.41864 4.90599 8.38956 4.87842C6.93081 3.49507 4.64274 3.51622 3.2239 4.94934C1.77677 6.41103 1.78383 8.78603 3.23725 10.2541L8.61744 15.6884C8.8406 15.9138 9.20242 15.9138 9.42559 15.6884ZM10.1143 5.57196C11.2255 4.45001 13.0307 4.4506 14.1542 5.58546C15.2788 6.72134 15.2805 8.55228 14.1679 9.68326L14.167 9.68413L9.02157 14.8783L3.84636 9.65101C2.72064 8.51396 2.71959 6.67702 3.83301 5.55239C4.94164 4.43262 6.74558 4.43349 7.86668 5.56587L8.68972 6.39719C8.85754 6.5667 9.13147 6.56657 9.29912 6.3969L10.1143 5.57196Z" fill="#FAF5F2"/>
</svg>
