<svg width="24" height="24" viewBox="0 0 24 24" fill="none" xmlns="http://www.w3.org/2000/svg">
<path d="M11.956 10.3557V13.8067H16.748C16.302 15.9997 14.435 17.2597 11.956 17.2597C9.06857 17.22 6.74868 14.868 6.74868 11.9802C6.74868 9.09251 9.06857 6.74047 11.956 6.70073C13.1562 6.6993 14.3195 7.11581 15.246 7.87873L17.846 5.27873C14.8636 2.6568 10.508 2.31957 7.15758 4.45118C3.80713 6.58279 2.26705 10.6709 3.37827 14.4834C4.4895 18.2958 7.98497 20.9162 11.956 20.9137C16.423 20.9137 20.485 17.6647 20.485 11.9797C20.4781 11.4324 20.4111 10.8874 20.285 10.3547L11.956 10.3557Z" fill="#2E3A59"/>
</svg>
