<svg width="20" height="21" viewBox="0 0 20 21" fill="none" xmlns="http://www.w3.org/2000/svg">
<path d="M16.0196 2.53601C17.1179 2.54321 18.0049 3.43471 18.0065 4.53301L18.0138 9.48308C18.0146 10.0145 17.8038 10.5244 17.428 10.9002L17.0692 11.259C16.2465 10.1894 14.9538 9.5 13.5 9.5C11.0147 9.5 9 11.5147 9 14C9 15.4535 9.68912 16.7461 10.7585 17.5688C9.97483 18.3119 8.73702 18.2993 7.96875 17.5311L3.02036 12.5827C2.2386 11.8009 2.23941 10.5332 3.02216 9.75243L9.7037 3.08789C10.0818 2.71071 10.5951 2.50045 11.1292 2.50395L16.0196 2.53601ZM13 6.49985C13 7.05213 13.4477 7.49985 14 7.49985C14.5523 7.49985 15 7.05213 15 6.49985C15 5.94756 14.5523 5.49985 14 5.49985C13.4477 5.49985 13 5.94756 13 6.49985ZM16.3032 16.0961C16.7408 15.5118 17 14.7862 17 14C17 12.067 15.433 10.5 13.5 10.5C11.567 10.5 10 12.067 10 14C10 15.933 11.567 17.5 13.5 17.5C14.2862 17.5 15.0118 17.2408 15.5961 16.8032L18.1464 19.3536C18.3417 19.5489 18.6583 19.5489 18.8535 19.3536C19.0488 19.1584 19.0488 18.8418 18.8536 18.6465L16.3032 16.0961ZM16 14C16 15.3807 14.8807 16.5 13.5 16.5C12.1193 16.5 11 15.3807 11 14C11 12.6193 12.1193 11.5 13.5 11.5C14.8807 11.5 16 12.6193 16 14Z" fill="#FAF5F2"/>
</svg>
