<svg width="20" height="20" viewBox="0 0 20 20" fill="none" xmlns="http://www.w3.org/2000/svg">
<rect width="20" height="20" rx="10" fill="#FAF5F2"/>
<path d="M6.08859 6.21569L6.14645 6.14645C6.32001 5.97288 6.58944 5.9536 6.78431 6.08859L6.85355 6.14645L10 9.293L13.1464 6.14645C13.3417 5.95118 13.6583 5.95118 13.8536 6.14645C14.0488 6.34171 14.0488 6.65829 13.8536 6.85355L10.707 10L13.8536 13.1464C14.0271 13.32 14.0464 13.5894 13.9114 13.7843L13.8536 13.8536C13.68 14.0271 13.4106 14.0464 13.2157 13.9114L13.1464 13.8536L10 10.707L6.85355 13.8536C6.65829 14.0488 6.34171 14.0488 6.14645 13.8536C5.95118 13.6583 5.95118 13.3417 6.14645 13.1464L9.293 10L6.14645 6.85355C5.97288 6.67999 5.9536 6.41056 6.08859 6.21569L6.14645 6.14645L6.08859 6.21569Z" fill="black"/>
</svg>
