<svg width="24" height="24" viewBox="0 0 24 24" fill="none" xmlns="http://www.w3.org/2000/svg">
<path d="M12 1.99902C17.5237 1.99902 22.0016 6.47687 22.0016 12.0006C22.0016 17.5243 17.5237 22.0021 12 22.0021C6.47632 22.0021 1.99847 17.5243 1.99847 12.0006C1.99847 6.47687 6.47632 1.99902 12 1.99902ZM14.9389 16.5003H9.06112C9.71316 18.9144 10.8465 20.5021 12 20.5021C13.1535 20.5021 14.2869 18.9144 14.9389 16.5003ZM7.50833 16.5009L4.78585 16.5007C5.74419 18.0338 7.17763 19.2394 8.88002 19.9114C8.35774 19.0915 7.92675 18.0653 7.60975 16.8959L7.50833 16.5009ZM19.2142 16.5007L16.4917 16.5009C16.1679 17.8346 15.7003 19.0004 15.119 19.9114C16.7159 19.2814 18.0756 18.1824 19.029 16.7843L19.2142 16.5007ZM7.09345 9.99992H3.73584L3.73108 10.0171C3.579 10.6535 3.49847 11.3176 3.49847 12.0006C3.49847 13.0567 3.69106 14.0679 4.04304 15.0009L7.2162 15.0005C7.0739 14.0514 6.99847 13.0432 6.99847 12.0006C6.99847 11.3166 7.03094 10.6474 7.09345 9.99992ZM15.397 9.99999H8.6031C8.53508 10.6403 8.49847 11.31 8.49847 12.0006C8.49847 13.0601 8.58462 14.0704 8.73821 15.0007H15.2618C15.4154 14.0704 15.5016 13.0601 15.5016 12.0006C15.5016 11.31 15.465 10.6403 15.397 9.99999ZM20.2646 9.99909L16.9066 9.99994C16.9691 10.6474 17.0016 11.3166 17.0016 12.0006C17.0016 13.0432 16.9261 14.0514 16.7838 15.0005L19.957 15.0009C20.309 14.0679 20.5016 13.0567 20.5016 12.0006C20.5016 11.3112 20.4195 10.6409 20.2646 9.99909ZM8.88107 4.08973L8.85817 4.09844C6.81085 4.91315 5.15484 6.50046 4.25017 8.50033L7.29829 8.50069C7.61165 6.7479 8.15849 5.22198 8.88107 4.08973ZM12 3.49902L11.8844 3.50432C10.6189 3.62008 9.39645 5.62205 8.82874 8.50027H15.1713C14.6052 5.63011 13.388 3.63131 12.1263 3.50534L12 3.49902ZM15.12 4.08979L15.2269 4.26388C15.8961 5.37635 16.4042 6.83623 16.7018 8.50069L19.7499 8.50033C18.8852 6.58892 17.3342 5.05439 15.4112 4.21106L15.12 4.08979Z" fill="#3B353F"/>
</svg>
