<svg width="20" height="20" viewBox="0 0 20 20" fill="none" xmlns="http://www.w3.org/2000/svg">
<g clip-path="url(#clip0_172_232)">
<path d="M4.13701 17.7798H11.458C12.885 17.7798 13.595 17.0629 13.595 15.6222V12.4235H12.4851V15.6015C12.4851 16.2908 12.1198 16.67 11.4028 16.67H4.19216C3.47522 16.67 3.10987 16.2908 3.10987 15.6015V5.18526C3.10987 4.49591 3.47522 4.10987 4.19216 4.10987H11.4028C12.1198 4.10987 12.4851 4.49591 12.4851 5.18526V8.35632H13.595V5.16459C13.595 3.73072 12.885 3 11.458 3H4.13701C2.71004 3 2 3.73072 2 5.16459V15.6222C2 17.0629 2.71004 17.7798 4.13701 17.7798ZM8.37656 10.9345H15.4563L16.4903 10.8931L16.0009 11.3619L14.891 12.4028C14.7807 12.4993 14.7255 12.6441 14.7255 12.7751C14.7255 13.0646 14.9254 13.2783 15.2081 13.2783C15.3529 13.2783 15.4632 13.2232 15.5735 13.1198L17.8208 10.7898C17.9586 10.6518 18 10.5278 18 10.39C18 10.2452 17.9586 10.128 17.8208 9.99009L15.5735 7.66006C15.4632 7.55666 15.3529 7.49462 15.2081 7.49462C14.9254 7.49462 14.7255 7.70143 14.7255 7.99095C14.7255 8.12882 14.7807 8.27359 14.891 8.3701L16.0009 9.41793L16.4903 9.88669L15.4563 9.83844H8.37656C8.08704 9.83844 7.84576 10.0935 7.84576 10.39C7.84576 10.6864 8.08704 10.9345 8.37656 10.9345Z" fill="white" fill-opacity="0.85"/>
</g>
<defs>
<clipPath id="clip0_172_232">
<rect width="16" height="14.7868" fill="white" transform="translate(2 3)"/>
</clipPath>
</defs>
</svg>
