<svg width="20" height="21" viewBox="0 0 20 21" fill="none" xmlns="http://www.w3.org/2000/svg">
<path d="M2.99707 3.99609C2.99707 3.71995 3.22093 3.49609 3.49707 3.49609H3.93543C4.66237 3.49609 5.07976 3.96917 5.32152 4.44075C5.4872 4.7639 5.6065 5.15813 5.70508 5.49951H15.9999C16.6634 5.49951 17.1429 6.13392 16.9619 6.77229L15.4664 12.0468C15.2225 12.9073 14.4368 13.5012 13.5423 13.5012H8.46306C7.56125 13.5012 6.77099 12.8977 6.5336 12.0277L5.89118 9.67338C5.88723 9.66268 5.88361 9.65177 5.88034 9.64067L4.851 6.1429C4.81568 6.02686 4.78318 5.91439 4.7518 5.8058C4.65195 5.46027 4.56346 5.15406 4.43165 4.89696C4.2723 4.58613 4.12597 4.49609 3.93543 4.49609H3.49707C3.22093 4.49609 2.99707 4.27224 2.99707 3.99609ZM8.5 17.4995C9.32843 17.4995 10 16.8279 10 15.9995C10 15.1711 9.32843 14.4995 8.5 14.4995C7.67157 14.4995 7 15.1711 7 15.9995C7 16.8279 7.67157 17.4995 8.5 17.4995ZM13.5 17.4995C14.3284 17.4995 15 16.8279 15 15.9995C15 15.1711 14.3284 14.4995 13.5 14.4995C12.6716 14.4995 12 15.1711 12 15.9995C12 16.8279 12.6716 17.4995 13.5 17.4995Z" fill="#FAF5F2"/>
</svg>
