<svg width="20" height="21" viewBox="0 0 20 21" fill="none" xmlns="http://www.w3.org/2000/svg">
<path d="M6 10.5C6 10.2239 6.22386 10 6.5 10C10.7032 10 8.98852 10 13.5 10C13.7761 10 14 10.2239 14 10.5C14 10.7761 13.7761 11 13.5 11C9.29954 11 11.0162 11 6.5 11C6.22386 11 6 10.7761 6 10.5ZM10 18.5C14.4183 18.5 18 14.9183 18 10.5C18 6.08172 14.4183 2.5 10 2.5C5.58172 2.5 2 6.08172 2 10.5C2 14.9183 5.58172 18.5 10 18.5ZM10 17.5C6.13401 17.5 3 14.366 3 10.5C3 6.63401 6.13401 3.5 10 3.5C13.866 3.5 17 6.63401 17 10.5C17 14.366 13.866 17.5 10 17.5Z" fill="#AFA8B4"/>
</svg>
