<svg width="20" height="20" viewBox="0 0 20 20" fill="none" xmlns="http://www.w3.org/2000/svg">
<g clip-path="url(#clip0_172_233)">
<path d="M9.99999 17.5532C12.1804 17.5532 13.9608 14.3312 13.9608 10.0118C13.9608 5.66879 12.1882 2.44684 9.99999 2.44684C7.81176 2.44684 6.03921 5.66879 6.03921 10.0118C6.03921 14.3312 7.8196 17.5532 9.99999 17.5532ZM9.99999 3.3954C11.5372 3.3954 12.9098 6.45273 12.9098 10.0118C12.9098 13.5081 11.5372 16.5968 9.99999 16.5968C8.46274 16.5968 7.09019 13.5081 7.09019 10.0118C7.09019 6.45273 8.46274 3.3954 9.99999 3.3954ZM9.49018 2.55659V17.4043H10.5177V2.55659H9.49018ZM9.99999 12.9437C7.5843 12.9437 5.44313 13.5786 4.34509 14.5899L5.13725 15.2406C6.17254 14.4175 7.85881 13.9706 9.99999 13.9706C12.1412 13.9706 13.8275 14.4175 14.8627 15.2406L15.6549 14.5899C14.5569 13.5786 12.4157 12.9437 9.99999 12.9437ZM17.2392 9.4787H2.76078V10.5056H17.2392V9.4787ZM9.99999 7.08771C12.4157 7.08771 14.5569 6.45273 15.6549 5.44146L14.8627 4.79079C13.8275 5.60608 12.1412 6.06076 9.99999 6.06076C7.85881 6.06076 6.17254 5.60608 5.13725 4.79079L4.34509 5.44146C5.44313 6.45273 7.5843 7.08771 9.99999 7.08771ZM9.99999 17.9922C14.3765 17.9922 18 14.3626 18 9.9961C18 5.62176 14.3686 2 9.99215 2C5.62353 2 2 5.62176 2 9.9961C2 14.3626 5.63136 17.9922 9.99999 17.9922ZM9.99999 16.9261C6.21176 16.9261 3.06666 13.7825 3.06666 9.9961C3.06666 6.20971 6.20392 3.06614 9.99215 3.06614C13.7804 3.06614 16.9334 6.20971 16.9334 9.9961C16.9334 13.7825 13.7882 16.9261 9.99999 16.9261Z" fill="white" fill-opacity="0.85"/>
</g>
<defs>
<clipPath id="clip0_172_233">
<rect width="16" height="16" fill="white" transform="translate(2 2)"/>
</clipPath>
</defs>
</svg>
